<svg xmlns="http://www.w3.org/2000/svg" width="39" height="24" viewBox="0 0 39 33" aria-hidden="true" focusable="false">
    <g fill="#0078A9" fill-rule="evenodd">
        <path d="M36.75 24.23l-.125-.006H34.01v-.175c-.296.12-.612.18-.916.18l-.124-.007h-1.548v.008h-3.744v.007h-2.543v-.756l.003-.64h-.167v1.397H22.4v-1.513c-.423.17-.907.212-1.367.212h-.247v1.295H17.75l-.76-.825-.764.826H11.26v-5.543h4.88s.54.583.853.918c.314-.333.856-.912.856-.912h.335l.793-.006h2.487c.144-.01.524-.013.93.14V18.7h3.254c.16-.01.574-.02 1.004.156V18.7h4.767v.16c.45-.18.866-.17.93-.163l2.713-.002v.172c.455-.186.878-.175.94-.17l1.954-.002V.43H4.587v14.118l1.143-2.67h2.478l.296.697v-.698h2.903l.64 1.406.64-1.406h8.964c.16-.012.575-.02 1.005.156v-.156h2.58v.334c.376-.23.808-.347 1.242-.366 0 0 1.382.037 1.437.04v-.006h2.472l.276.65v-.65h2.667s.38.62.42.69v-.69h2.58v5.537H33.7l-.445-.724v.725H29.95l-.368-.844h-.876l-.36.845H26.16l-.054-.006c-.243-.037-.56-.145-.87-.34v.36H23.42v-.015h-2.286v-.756l.005-.64h-.17v1.395H13v-.085l-.04.084h-1.83s-.03-.066-.05-.103v.105H7.76l-.36-.844h-.875l-.365.845H4.59V32.61h33.368v-8.705c-.37.223-.802.326-1.21.326z"></path>
        <path d="M20.216 14.316h1.07c.313 0 .57-.17.57-.382 0-.21-.257-.38-.57-.38h-1.07v.762m1.7 2.342v-.783s-.042-.612-.69-.612h-1.01v1.395H19.18v-4.025h2.515s1.312-.155 1.312 1.178c0 .697-.58.94-.58.94s.505.234.505.915v.994h-1.015m6.735-1.874h1.01l-.498-1.198-.512 1.198m5.492 1.87L32.5 13.97v2.69h-2.03l-.367-.844H28.21l-.36.843h-1.623s-1.395-.198-1.395-1.9c0-2.234 1.582-2.145 1.636-2.16l1.28.035v.905l-1.05.012s-.686 0-.768.88c-.01.1-.014.194-.014.28.004 1.36 1.198.937 1.238.925l1.283-3.003h1.452l1.552 3.65v-3.65h1.464l1.624 2.65v-2.65h1.044v4.023h-1.43m-27.67-1.87h1.01l-.504-1.2-.505 1.2zm7.31 1.87V13.88l-1.3 2.777h-.85l-1.304-2.764v2.764H8.285l-.36-.843H6.033l-.365.843H4.534l1.72-4.023H7.71l1.578 3.696v-3.696h1.637l1.14 2.5 1.134-2.5h1.636v4.023h-1.05zm1.624 0v-4.024h3.234v.94h-2.19v.62h2.134v.912H16.45v.682h2.192v.87"></path>
        <path d="M23.436 16.672h1.043v-4.037h-1.045m.782 8.505h1.07c.312 0 .566-.17.566-.382s-.254-.382-.566-.382h-1.07v.763m1.7 2.34v-.78s-.042-.615-.692-.615h-1.008v1.395H23.18v-4.023h2.516s1.312-.157 1.312 1.178c0 .695-.58.94-.58.94s.498.232.498.912v.994h-1.01m-5.886-2.348h1.07c.312 0 .566-.17.566-.382 0-.21-.254-.38-.565-.38h-1.07v.762m-6.943 1.472h2.183l1.023-1.11-1.023-1.104h-2.183v.62h2.127v.912h-2.127v.682m4.62-1.11l1.287 1.403v-2.8l-1.286 1.397m1.3 1.982h-.906l-1.097-1.193-1.107 1.193h-3.855v-4.032h3.773l1.19 1.28 1.192-1.273h.796v-.005h2.515s1.31-.143 1.31 1.184c0 1.183-.436 1.552-1.776 1.552H20.03v1.296h-1.023m13.977-.01H31.14v-.926h1.616s.58.068.58-.32c0-.362-.877-.333-.877-.333s-1.43.12-1.43-1.2c0-1.315 1.29-1.24 1.29-1.24h1.99v.94h-1.603s-.554-.11-.554.286c0 .333.753.284.753.284s1.582-.113 1.582 1.1c0 1.298-1.02 1.413-1.382 1.413-.077 0-.124-.005-.124-.005m-5.546.007v-4.018h3.232v.932h-2.19v.617h2.136v.915H28.48v.68h2.188v.872m5.97-.006h-1.845v-.926h1.61s.588.068.588-.32c0-.362-.876-.333-.876-.333s-1.43.12-1.43-1.2c0-1.315 1.29-1.24 1.29-1.24h1.985v.94h-1.6s-.552-.11-.552.286c0 .333.755.284.755.284s1.58-.113 1.58 1.1c0 1.298-1.018 1.413-1.38 1.413-.077 0-.125-.005-.125-.005M1.68 31.054h.4c.133 0 .25-.034.25-.203 0-.176-.125-.19-.214-.19H1.68v.395m.67.804c-.033-.116-.04-.328-.04-.375 0-.103-.015-.212-.208-.212H1.68v.586h-.25v-1.417h.672c.228 0 .483.074.483.396 0 .175-.075.257-.16.32.07.033.126.094.133.25l.006.245c.008.074.015.09.07.123v.08H2.35M.66 31.165c0 .708.56 1.287 1.314 1.287.747 0 1.306-.578 1.306-1.286 0-.716-.553-1.288-1.305-1.288-.76 0-1.313.572-1.313 1.288m-.228 0c0-.84.685-1.513 1.54-1.513.85 0 1.534.675 1.534 1.514 0 .837-.684 1.51-1.533 1.51-.855 0-1.54-.673-1.54-1.51"></path>
    </g>
</svg>
