<svg xmlns="http://www.w3.org/2000/svg" width="48" height="26" viewBox="0 0 78 34" aria-hidden="true" focusable="false">
    <defs>
        <radialGradient cy="0%" fx="50%" fy="0%" r="100%" gradientTransform="matrix(0 1 -.96473 0 .5 -.5)" id="discover-a">
            <stop stop-color="#FAD961" offset="0%"></stop>
            <stop stop-color="#F76B1C" offset="100%"></stop>
        </radialGradient>
    </defs>
    <g fill="none" fill-rule="evenodd">
        <path d="M.405 33.334h73.353c1.953 0 3.534-1.564 3.534-3.49V5.355C70.252 9.757 43.71 24.944.405 33.334" fill="#E6792B"></path>
        <path d="M13.18 6.61c-.534.477-1.22.68-2.317.68l-.454.002V1.625h.452c1.096 0 1.757.194 2.318.693.588.514.936 1.31.936 2.13 0 .825-.348 1.65-.935 2.16zM11.2.176H8.715v8.57h2.477c1.313 0 2.263-.31 3.096-.99.99-.81 1.576-2.03 1.576-3.29 0-2.53-1.916-4.29-4.66-4.29z" fill="#0D1619"></path>
        <path fill="#0D1619" d="M16.642 8.743h1.69V.173h-1.69z"></path>
        <path d="M22.474 3.46c-1.015-.37-1.314-.615-1.314-1.078 0-.54.53-.95 1.26-.95.51 0 .926.207 1.37.692l.883-1.14c-.73-.632-1.6-.95-2.55-.95-1.536 0-2.707 1.05-2.707 2.45 0 1.185.546 1.787 2.133 2.35.663.234 1 .387 1.17.49.34.22.508.527.508.887 0 .697-.56 1.208-1.317 1.208-.805 0-1.456-.396-1.847-1.14l-1.09 1.04c.78 1.13 1.716 1.632 3.006 1.632 1.756 0 2.992-1.16 2.992-2.816 0-1.36-.57-1.978-2.5-2.675" fill="#0D1619"></path>
        <path d="M25.506 4.463c0 2.52 2.006 4.472 4.583 4.472.727 0 1.35-.142 2.12-.5V6.467c-.68.668-1.277.937-2.044.937-1.705 0-2.917-1.22-2.917-2.956 0-1.643 1.247-2.94 2.84-2.94.802 0 1.416.282 2.12.96V.506c-.742-.37-1.354-.523-2.083-.523-2.565 0-4.622 1.992-4.622 4.48" fill="#0D1619"></path>
        <path fill="#0D1619" d="M45.93 5.93L43.61.174h-1.847l3.685 8.787h.91L50.11.176h-1.836L45.93 5.93"></path>
        <path fill="#0D1619" d="M50.876 8.743h4.804V7.29h-3.11V4.977h2.992v-1.45H52.57v-1.9h3.11V.174h-4.804v8.568"></path>
        <path d="M58.982 4.118h-.49V1.522h.52c1.055 0 1.628.438 1.628 1.27 0 .86-.573 1.326-1.658 1.326zm3.398-1.414c0-1.607-1.117-2.53-3.07-2.53h-2.512v8.57h1.693V5.3h.223l2.342 3.443h2.082L60.4 5.133c1.278-.257 1.98-1.118 1.98-2.43z" fill="#0D1619"></path>
        <path d="M63.256.916h-.034V.72h.036c.088 0 .135.032.135.097 0 .064-.05.1-.137.1zm.32-.103c0-.15-.103-.233-.29-.233h-.244v.756h.18v-.293l.215.293h.227l-.256-.31c.108-.03.168-.108.168-.213z" fill="#1B1A18"></path>
        <path d="M63.322 1.498c-.295 0-.534-.24-.534-.54 0-.3.237-.54.534-.54.29 0 .526.243.526.54s-.235.54-.526.54zm0-1.2c-.37 0-.665.292-.665.658 0 .366.296.66.665.66.364 0 .66-.296.66-.66 0-.362-.296-.66-.66-.66z" fill="#1B1A18"></path>
        <path d="M38.195.586c-2.555 0-4.628 1.97-4.628 4.402 0 2.586 1.983 4.518 4.628 4.518 2.58 0 4.618-1.958 4.618-4.467 0-2.495-2.025-4.455-4.618-4.455" fill="url(#discover-a)" transform="translate(-.714 -.57)"></path>
    </g>
</svg>
