<svg xmlns="http://www.w3.org/2000/svg" width="30" height="28" viewBox="0 0 56 34" aria-hidden="true" focusable="false">
    <g fill="none" fill-rule="evenodd">
        <path fill="#FAB12F" d="M38.716.428l-.838.023-.83.062-.813.105-.803.142-.785.182-.776.218-.753.26-.744.29-.718.332-.7.358-.68.388-.66.423-.638.458-.618.486-.59.51-.566.54-.538.565-.51.592-.485.612-.45.637-.423.667-.392.675-.362.706-.325.72-.29.736-.255.76-.22.77-.18.785-.145.796-.102.815-.06.824-.024.838.023.84.06.83.103.815.145.81.18.787.22.773.254.758.29.744.326.724.362.704.392.683.423.667.45.637.485.614.51.597.54.566.565.546.59.51.617.485.637.458.66.42.68.397.7.358.72.33.743.29.754.26.777.22.785.18.803.147.813.1.83.064.838.02.84-.02.83-.063.815-.1.81-.147.787-.18.775-.22.757-.26.743-.29.725-.33.704-.358.683-.396.666-.422.638-.457.616-.483.595-.51.565-.546.544-.565.51-.597.485-.614.456-.637.425-.666.394-.682.357-.704.33-.725.29-.745.26-.758.22-.773.18-.788.145-.81.102-.814.063-.83.02-.84-.02-.838-.063-.823-.102-.814-.145-.797-.18-.786-.22-.77-.26-.76-.29-.737-.33-.72-.358-.705-.395-.675-.424-.666-.455-.636-.484-.612-.51-.593-.545-.567-.566-.54-.596-.51-.616-.485-.637-.457-.665-.422-.683-.388-.704-.358-.725-.33-.744-.293-.758-.26-.775-.218L42.01.76 41.2.616l-.814-.105-.83-.06"></path>
        <path fill="#EA2030" d="M16.905.428l-.842.023-.83.062-.815.105-.808.142-.788.182-.773.218-.76.26-.744.29-.725.332-.703.358-.683.388-.666.423-.637.458-.613.486-.595.51-.565.54-.545.565-.514.592-.48.612-.458.637-.423.667-.396.675-.356.706-.333.72-.288.736-.26.76-.22.77-.18.785-.145.796-.102.815-.06.824-.024.838.024.84.06.83.103.815.145.81.18.787.22.773.26.758.29.744.332.724.357.704.397.683.423.667.457.637.48.614.515.597.545.566.565.546.595.51.614.485.638.458.666.42.683.397.704.358.726.33.744.29.76.26.772.22.788.18.808.147.815.1.83.064.842.02.836-.02.83-.063.814-.1.805-.147.784-.18.776-.22.754-.26.742-.29.72-.33.698-.358.68-.396.66-.422.64-.457.616-.483.59-.51.565-.546.538-.565.513-.597.482-.614.45-.637.426-.666.39-.682.362-.704.325-.725.292-.745.254-.758.22-.773.182-.788.143-.81.103-.814.06-.83.024-.84-.023-.838-.06-.823-.103-.814-.142-.797-.182-.786-.22-.77-.254-.76-.29-.737-.326-.72-.362-.705-.39-.675-.425-.666-.452-.636-.482-.612-.513-.593-.538-.567-.566-.54-.59-.51-.616-.485-.64-.457-.66-.422-.68-.388-.698-.358-.72-.33-.742-.293-.754-.26-.776-.218L20.19.76l-.806-.143-.813-.105-.83-.06"></path>
        <path fill="#FAB12F" d="M26.65 5.797l-.747.884h8.66v-.883M25.127 7.764l-.524.886h9.96v-.886M24.02 9.73l-.385.883h10.93V9.73M23.245 11.697l-.274.885h11.594v-.885M23.08 21.21l.276.887H34.59v-.886M23.773 23.18l.413.886H34.59v-.886M24.797 25.143l.555.886h9.238v-.887M26.183 27.106l.775.892h7.63v-.892M22.75 13.66l-.17.887h11.984v-.887M30.05 19.248l-.167.886h4.57v-.886M30.41 17.28l-.162.89h4.205v-.89M22.278 17.28l.054.89h1.134v-.89"></path>
        <path fill="#FFF" d="M20.06 16.206l-.075-.006-.077-.01-.072-.01-.07-.012-.068-.01-.07-.013-.072-.01-.078-.01-.078-.01-.088-.008-.098-.006-.103-.003h-.116l-.126.004-.144.014-.157.01-.11.017-.106.018-.094.03-.08.035-.08.04-.068.04-.056.058-.05.05-.032.06-.027.06-.013.068v.065l.017.07.023.072.042.073.056.072.11.102.133.084.154.07.166.062.174.055.182.06.182.067.176.072.164.092.155.115.136.137.116.17.088.21.055.247.02.297-.02.347-.04.26-.066.224-.088.21-.11.18-.125.162-.143.136-.155.122-.168.105-.178.08-.182.073-.187.056-.193.044-.186.034-.18.014-.182.013-.17.003h-.24l-.217-.004h-.194l-.182-.007-.166-.007-.146-.01-.132-.01-.126-.017-.117-.012-.105-.023-.105-.017-.092-.027-.094-.02-.087-.033-.088-.034-.092-.033.247-1.214.048.01.06.018.078.02.095.024.1.02.108.024.122.027.132.02.138.02.142.024.15.017.152.017.16.005.16.006h.158l.16-.006.16-.032.126-.044.098-.06.078-.078.054-.078.047-.088.027-.088.02-.08.013-.16-.05-.14-.094-.11-.135-.092-.166-.082-.194-.084-.213-.077-.216-.087-.22-.1-.208-.116-.193-.142-.18-.17-.135-.21-.098-.247-.05-.297.006-.35.027-.215.038-.205.056-.187.066-.174.088-.166.1-.143.114-.137.138-.122.162-.103.174-.088.196-.083.22-.06.25-.05.27-.04.296-.02.324-.006h.204l.186.007.172.004.153.008.138.01.127.01.11.01.1.014.09.01.08.017.07.01.067.01.055.01.05.007.047.012.044.003"></path>
        <path stroke="#FFF" stroke-width=".5" d="M20.06 16.206l-.075-.006-.077-.01-.072-.01-.07-.012-.068-.01-.07-.013-.072-.01-.078-.01-.078-.01-.088-.008-.098-.006-.103-.003h-.116l-.126.004-.144.014-.157.01-.11.017-.106.018-.094.03-.08.035-.08.04-.068.04-.056.058-.05.05-.032.06-.027.06-.013.068v.065l.017.07.023.072.042.073.056.072.11.102.133.084.154.07.166.062.174.055.182.06.182.067.176.072.164.092.155.115.136.137.116.17.088.21.055.247.02.297-.02.347-.04.26-.066.224-.088.21-.11.18-.125.162-.143.136-.155.122-.168.105-.178.08-.182.073-.187.056-.193.044-.186.034-.18.014-.182.013-.17.003h-.24l-.217-.004h-.194l-.182-.007-.166-.007-.146-.01-.132-.01-.126-.017-.117-.012-.105-.023-.105-.017-.092-.027-.094-.02-.087-.033-.088-.034-.092-.033.247-1.214.048.01.06.018.078.02.095.024.1.02.108.024.122.027.132.02.138.02.142.024.15.017.152.017.16.005.16.006h.158l.16-.006.16-.032.126-.044.098-.06.078-.078.054-.078.047-.088.027-.088.02-.08.013-.16-.05-.14-.094-.11-.135-.092-.166-.082-.194-.084-.213-.077-.216-.087-.22-.1-.208-.116-.193-.142-.18-.17-.135-.21-.098-.247-.05-.297.006-.35.027-.215.038-.205.056-.187.066-.174.088-.166.1-.143.114-.137.138-.122.162-.103.174-.088.196-.083.22-.06.25-.05.27-.04.296-.02.324-.006h.204l.186.007.172.004.153.008.138.01.127.01.11.01.1.014.09.01.08.017.07.01.067.01.055.01.05.007.047.012.044.003-.28 1.243"></path>
        <path fill="#FFF" d="M21.365 13.606h1.523l-.224 1.33h.917l-.198 1.243-.968-.028-.526 3.067-.006.11.027.094.054.072.07.058.102.04.11.034.12.02.132.013.12-.005.11-.01.1-.017.087-.023.073-.02.05-.018.032-.013.01-.004-.192 1.023-.038.027-.04.023-.037.02-.038.024-.04.017-.044.016-.047.015-.05.017-.055.017-.056.01-.065.012-.065.01-.072.013-.083.01-.088.01-.096.01h-.417l-.22-.016-.192-.022-.176-.033-.15-.04-.126-.048-.105-.055-.095-.067-.07-.07-.056-.078-.04-.093-.028-.094-.016-.105-.005-.115v-.12l.018-.127.017-.138"></path>
        <path stroke="#FFF" stroke-width=".5" d="M21.365 13.606h1.523l-.224 1.33h.917l-.198 1.243-.968-.028-.526 3.067-.006.11.027.094.054.072.07.058.102.04.11.034.12.02.132.013.12-.005.11-.01.1-.017.087-.023.073-.02.05-.018.032-.013.01-.004-.192 1.023-.038.027-.04.023-.037.02-.038.024-.04.017-.044.016-.047.015-.05.017-.055.017-.056.01-.065.012-.065.01-.072.013-.083.01-.088.01-.096.01h-.417l-.22-.016-.192-.022-.176-.033-.15-.04-.126-.048-.105-.055-.095-.067-.07-.07-.056-.078-.04-.093-.028-.094-.016-.105-.005-.115v-.12l.018-.127.017-.138 1.05-6"></path>
        <path stroke="#FFF" stroke-width=".5" d="M24.797 18.252l-.017.093-.004.098.01.105.02.105.04.104.045.1.06.106.067.092.075.094.084.083.088.082.098.065.1.06.11.05.11.038.11.02.142.024.14.017.14.016.144.01.142.007h.15l.143-.007.147-.01.15-.023.148-.027.155-.034.148-.048.154-.06.16-.068.155-.088.158-.092-.22 1.353-.09.04-.086.047-.088.032-.082.032-.084.028-.088.027-.088.02-.094.02-.098.016-.11.01-.115.01-.127.012-.143.006h-.147l-.17.005h-.184l-.268-.004-.274-.026-.277-.04-.274-.065-.27-.083-.257-.106-.248-.136-.232-.16-.214-.187-.187-.225-.16-.253-.132-.292-.093-.325-.06-.37-.017-.405.03-.45.02-.177.033-.202.044-.214.06-.232.083-.235.098-.24.128-.24.153-.23.175-.22.214-.21.242-.186.274-.165.32-.138.357-.1.396-.064.445-.023.214.007.225.02.225.04.226.055.22.084.214.098.2.132.18.153.164.186.14.222.108.25.077.292.043.33.006.374-.04.417-.082.464-.027.336h-4.008l.252-1.084h2.41l.01-.136-.006-.132-.01-.12-.022-.112-.04-.105-.037-.093-.058-.082-.054-.076-.065-.068-.072-.054-.082-.05-.082-.044-.088-.032-.088-.023-.094-.018-.1-.01-.104.004-.098.017-.094.023-.093.033-.094.043-.082.05-.082.06-.072.066-.07.075-.068.082-.06.09-.05.094-.05.1-.037.108-.032.11-.02.117-.22 1.137"></path>
        <path fill="#FFF" d="M37.912 15.266l-.072-.037-.07-.035-.078-.04-.082-.037-.084-.034-.092-.03-.094-.035-.1-.034-.104-.028-.104-.02-.116-.024-.115-.016-.125-.01-.125-.01H36.14l-.14.01-.15.016-.153.027-.155.045-.153.06-.156.078-.155.1-.148.118-.144.146-.14.176-.13.203-.12.24-.115.276-.105.31-.086.353-.036.197-.02.192-.01.193.005.187.016.186.038.176.05.166.06.165.082.15.1.14.116.127.132.115.15.1.17.083.185.07.21.05.07.016.084.017.098.012.11.01.12.01h.266l.137-.01.142-.016.143-.028.138-.04.136-.042.14-.063.124-.07.116-.087.11-.1-.247 1.468-.033.027-.032.034-.046.04-.048.03-.06.044-.078.038-.088.04-.1.03-.126.04-.143.028-.163.023-.195.02-.214.012-.246.006-.28-.005-.31-.017-.252-.027-.252-.054-.253-.082-.254-.11-.24-.133-.233-.164-.218-.19-.206-.22-.182-.248-.153-.277-.13-.307-.1-.335-.064-.37-.023-.388.012-.43.06-.457.043-.224.05-.22.055-.217.056-.203.058-.193.07-.19.074-.183.076-.17.084-.17.08-.16.096-.153.098-.142.1-.138.108-.132.11-.122.116-.115.126-.11.127-.103.132-.094.14-.088.145-.084.15-.068.154-.067.16-.06.17-.055.17-.044.175-.04.187-.03.187-.03.2-.022.196-.01.21-.006.175.006.17.01.166.017.164.024.155.02.148.035.142.026.132.033.128.03.11.034.104.034.088.03.077.03.064.022.05.023.034.01"></path>
        <path stroke="#FFF" stroke-width=".5" d="M37.912 15.266l-.072-.037-.07-.035-.078-.04-.082-.037-.084-.034-.092-.03-.094-.035-.1-.034-.104-.028-.104-.02-.116-.024-.115-.016-.125-.01-.125-.01H36.14l-.14.01-.15.016-.153.027-.155.045-.153.06-.156.078-.155.1-.148.118-.144.146-.14.176-.13.203-.12.24-.115.276-.105.31-.086.353-.036.197-.02.192-.01.193.005.187.016.186.038.176.05.166.06.165.082.15.1.14.116.127.132.115.15.1.17.083.185.07.21.05.07.016.084.017.098.012.11.01.12.01h.266l.137-.01.142-.016.143-.028.138-.04.136-.042.14-.063.124-.07.116-.087.11-.1-.247 1.468-.033.027-.032.034-.046.04-.048.03-.06.044-.078.038-.088.04-.1.03-.126.04-.143.028-.163.023-.195.02-.214.012-.246.006-.28-.005-.31-.017-.252-.027-.252-.054-.253-.082-.254-.11-.24-.133-.233-.164-.218-.19-.206-.22-.182-.248-.153-.277-.13-.307-.1-.335-.064-.37-.023-.388.012-.43.06-.457.043-.224.05-.22.055-.217.056-.203.058-.193.07-.19.074-.183.076-.17.084-.17.08-.16.096-.153.098-.142.1-.138.108-.132.11-.122.116-.115.126-.11.127-.103.132-.094.14-.088.145-.084.15-.068.154-.067.16-.06.17-.055.17-.044.175-.04.187-.03.187-.03.2-.022.196-.01.21-.006.175.006.17.01.166.017.164.024.155.02.148.035.142.026.132.033.128.03.11.034.104.034.088.03.077.03.064.022.05.023.034.01-.276 1.523"></path>
        <path fill="#FFF" d="M51.45 20.826H49.93l.11-.61v-.056l-.09.11-.09.1-.093.087-.1.078-.1.07-.098.062-.1.05-.105.048-.103.04-.106.027-.104.027-.11.014-.11.02-.105.01-.11.006h-.108l-.287-.023-.264-.06-.243-.095-.22-.126-.197-.16-.176-.186-.155-.205-.132-.23-.11-.248-.087-.258-.06-.27-.045-.282-.016-.278.005-.287.026-.28.05-.28.084-.327.098-.306.116-.28.138-.264.142-.248.166-.222.17-.197.182-.18.193-.162.203-.136.21-.122.21-.094.217-.078.22-.048.22-.033.224-.01.16.003.153.02.145.026.132.038.126.044.11.05.11.06.098.062.088.065.082.07.073.072.065.072.055.07.05.073.044.065.034.067.386-2.162h1.494"></path>
        <path stroke="#FFF" stroke-width=".5" d="M51.45 20.826H49.93l.11-.61v-.056l-.09.11-.09.1-.093.087-.1.078-.1.07-.098.062-.1.05-.105.048-.103.04-.106.027-.104.027-.11.014-.11.02-.105.01-.11.006h-.108l-.287-.023-.264-.06-.243-.095-.22-.126-.197-.16-.176-.186-.155-.205-.132-.23-.11-.248-.087-.258-.06-.27-.045-.282-.016-.278.005-.287.026-.28.05-.28.084-.327.098-.306.116-.28.138-.264.142-.248.166-.222.17-.197.182-.18.193-.162.203-.136.21-.122.21-.094.217-.078.22-.048.22-.033.224-.01.16.003.153.02.145.026.132.038.126.044.11.05.11.06.098.062.088.065.082.07.073.072.065.072.055.07.05.073.044.065.034.067.386-2.162h1.494l-1.243 7.193"></path>
        <path fill="#FAB12F" d="M48.96 19.495l.153-.01.145-.034.132-.036.126-.06.115-.066.112-.084.105-.094.092-.1.08-.11.078-.12.07-.127.064-.13.055-.138.044-.143.038-.148.028-.15.027-.152.017-.16v-.15l-.005-.153-.016-.144-.024-.138-.038-.132-.044-.126-.055-.11-.068-.105-.07-.088-.083-.078-.095-.066-.098-.044-.105-.027-.115-.01-.15.01-.137.02-.126.045-.128.056-.11.072-.11.088-.092.092-.094.105-.082.122-.078.126-.073.132-.06.142-.053.15-.044.15-.044.157-.034.158-.027.243.01.265.04.27.072.258.11.227.143.18.18.12"></path>
        <path fill="#FFF" d="M15.19 19.605l-.22 1.222H13.58l.04-.227.027-.203.02-.153.023-.084-.077.088-.088.088-.105.084-.115.076-.132.077-.138.065-.143.067-.15.055-.158.05-.16.038-.158.033-.167.022-.16.013-.158.004-.153-.018-.15-.02-.192-.05-.176-.056-.155-.07-.137-.082-.122-.088-.107-.1-.09-.106-.076-.11-.067-.114-.055-.122-.044-.12-.032-.12-.02-.128-.018-.126-.01-.122v-.12l.014-.215.034-.203.057-.193.07-.186.09-.175.097-.16.115-.152.132-.14.138-.127.153-.115.16-.104.165-.088.176-.075.184-.06.186-.05.193-.035h.01l.028-.004.04-.006.06-.006.066-.01.076-.005.083-.013.093-.01.094-.01.094-.01.1-.007.087-.01.088-.007.082-.006.078-.004h.19l.13.004.12.006h.12l.1.006.077.004.055.007h.017l.01-.04.033-.1.027-.114.01-.105-.02-.12-.05-.11-.066-.098-.09-.084-.103-.07-.114-.05-.132-.033-.144-.01-.153-.007-.166-.004h-.17l-.175.004-.182.013-.176.013-.176.017-.17.023-.164.02-.16.028-.142.028-.132.028-.12.035-.1.033-.077.037-.06.034.39-1.324.12-.05.122-.044.132-.038.13-.03.133-.027.142-.02.143-.023.148-.01.155-.01.16-.007.166-.006h.528l.193.006.193.006.153.01.165.028.17.04.176.048.17.067.165.077.165.092.155.104.134.12.123.133.112.147.078.165.057.177.03.187v.207l-.03.22"></path>
        <path stroke="#FFF" stroke-width=".5" d="M15.19 19.605l-.22 1.222H13.58l.04-.227.027-.203.02-.153.023-.084-.077.088-.088.088-.105.084-.115.076-.132.077-.138.065-.143.067-.15.055-.158.05-.16.038-.158.033-.167.022-.16.013-.158.004-.153-.018-.15-.02-.192-.05-.176-.056-.155-.07-.137-.082-.122-.088-.107-.1-.09-.106-.076-.11-.067-.114-.055-.122-.044-.12-.032-.12-.02-.128-.018-.126-.01-.122v-.12l.014-.215.034-.203.057-.193.07-.186.09-.175.097-.16.115-.152.132-.14.138-.127.153-.115.16-.104.165-.088.176-.075.184-.06.186-.05.193-.035h.01l.028-.004.04-.006.06-.006.066-.01.076-.005.083-.013.093-.01.094-.01.094-.01.1-.007.087-.01.088-.007.082-.006.078-.004h.19l.13.004.12.006h.12l.1.006.077.004.055.007h.017l.01-.04.033-.1.027-.114.01-.105-.02-.12-.05-.11-.066-.098-.09-.084-.103-.07-.114-.05-.132-.033-.144-.01-.153-.007-.166-.004h-.17l-.175.004-.182.013-.176.013-.176.017-.17.023-.164.02-.16.028-.142.028-.132.028-.12.035-.1.033-.077.037-.06.034.39-1.324.12-.05.122-.044.132-.038.13-.03.133-.027.142-.02.143-.023.148-.01.155-.01.16-.007.166-.006h.528l.193.006.193.006.153.01.165.028.17.04.176.048.17.067.165.077.165.092.155.104.134.12.123.133.112.147.078.165.057.177.03.187v.207l-.03.22-.556 2.905"></path>
        <path fill="#EA2030" d="M13.534 18.07h-.084l-.086.007-.094.01-.088.01-.09.014-.08.01-.077.016-.067.02-.06.014-.04.01-.043.017-.06.023-.06.027-.073.034-.07.038-.078.038-.072.046-.075.055-.07.054-.07.066-.06.067-.056.07-.036.08-.032.087-.017.086-.006.19.026.147.057.11.07.08.083.057.094.034.088.017.086.007.168-.006.148-.016.14-.023.13-.03.108-.04.104-.05.095-.05.083-.06.07-.056.064-.063.057-.06.045-.067.038-.065.033-.067.028-.06.016-.06.044-.16.04-.182.032-.176.03-.142-.007-.028-.024-.027-.032-.017-.054-.01-.063-.01-.07-.007"></path>
        <path fill="#FFF" d="M8.018 13.606l-1.8 4.284-.247-4.284h-2.6l-1.246 7.22h1.492l.916-5.395h.081l.01.265.04.628.05.863.053.983.057.98.05.85.038.6.01.226h1.69l2.24-5.395h.06l-.946 5.396H9.46l1.276-7.22"></path>
        <path stroke="#FFF" stroke-width=".5" d="M3.617 20.826H2.124l1.246-7.22h2.6l.25 4.284 1.797-4.284h2.718l-1.276 7.22H7.962l.945-5.395h-.06l-2.24 5.396H4.924L4.91 20.6l-.037-.6-.05-.85-.055-.98-.057-.984-.047-.863-.038-.626-.012-.266H4.53l-.913 5.396"></path>
        <path fill="#FFF" d="M42.484 19.605l-.227 1.222h-1.38l.01-.227.006-.196v-.15l.01-.064-.07.082-.082.08-.098.08-.11.076-.116.072-.132.064-.138.068-.136.054-.15.044-.154.044-.153.027-.155.022-.16.013-.152.004-.15-.018-.148-.02-.2-.05-.173-.056-.155-.07-.145-.082-.12-.088-.104-.1-.087-.106-.075-.11-.067-.114-.05-.122-.044-.12-.027-.12-.024-.128-.014-.126-.013-.122v-.12l.012-.215.033-.203.048-.193.07-.186.083-.175.105-.16.116-.152.128-.14.142-.127.15-.115.158-.104.172-.088.17-.075.18-.06.182-.05.187-.035h.013l.025-.004.04-.006.054-.006.073-.01.076-.005.084-.013.085-.01.095-.01.1-.01.092-.007.095-.01.088-.007.075-.006.078-.004h.192l.132.004.126.006h.122l.104.006.088.004.05.007h.022l.012-.04.017-.1.015-.114.01-.105-.02-.12-.045-.11-.07-.098-.085-.084-.098-.07-.116-.05-.12-.033-.133-.01-.152-.007-.166-.004h-.17l-.177.004-.18.013-.177.013-.176.017-.17.023-.165.02-.16.028-.14.028-.133.028-.122.035-.098.033-.078.037-.06.034.385-1.324.12-.05.128-.044.126-.038.132-.03.138-.027.138-.02.14-.023.152-.01.152-.01.16-.007.16-.006h.516l.187.006.188.006.152.01.166.028.17.04.176.048.172.067.17.077.163.092.155.104.138.12.126.133.11.147.082.165.06.177.04.187v.207l-.028.22"></path>
        <path d="M42.223 20.82l.034-.033v.08l.033-.036.226-1.22-.067-.01-.227 1.22zm.034.047l.027-.01.006-.026-.033.037z" fill="#FFF"></path>
        <path d="M40.877 20.787l.033.04h-.065l.032.04h1.38v-.08h-1.38zm-.038.08h.037l-.032-.04-.006.04z" fill="#FFF"></path>
        <path d="M40.88 20.17l.052.04-.05-.044v.004zm0 0l-.003-.004.004.004zm-.02.086l-.006.15v.193l-.01.226h.067l.01-.227.012-.195-.007-.15v-.045l-.044-.04-.02.086z" fill="#FFF"></path>
        <path fill="#FFF" d="M40.805 20.25l-.077.077-.1.077-.104.076-.115.065-.133.07-.132.062-.138.054-.14.047-.156.044-.154.028-.146.02-.162.012-.153.006-.148-.017-.143-.022-.01.067.153.02.148.018.153-.006.162-.01.16-.022.15-.03.155-.04.155-.047.138-.054.14-.067.135-.063.113-.078.117-.08.1-.075.087-.087.07-.084-.054-.045"></path>
        <path fill="#FFF" d="M37.462 19.248l.006.12.01.12.017.133.02.126.03.124.042.126.05.128.072.113.076.115.088.105.11.105.127.09.144.088.16.07.18.055.198.05.013-.066-.2-.052-.17-.054-.15-.07-.142-.08-.116-.087-.098-.094-.09-.103-.077-.107-.06-.115-.05-.115-.045-.113-.025-.122-.02-.128-.018-.12-.012-.12.006-.122M39.244 17.17l-.187.048-.182.06-.176.078-.173.088-.163.11-.15.114-.142.132-.132.14-.117.154-.11.163-.083.185-.07.184-.05.197-.03.21-.017.215h.075l.006-.216.032-.197.05-.186.07-.188.085-.17.098-.154.117-.155.12-.137.142-.12.15-.116.154-.1.172-.09.164-.074.182-.06.176-.05.182-.035v-.064"></path>
        <path fill="#FFF" d="M40.51 17.02l-.08.01-.076.008-.088.006-.092.008-.095.006-.1.01-.093.014-.088.01-.085.013-.076.002-.072.014-.054.003-.046.007-.02.006h-.012v.065h.01l.034-.003.034-.004.054-.007.07-.01.077-.006.084-.01.087-.014.094-.01.1-.013.094-.002.092-.013.088-.002.075-.007h.138v-.077M40.567 17.02v.078h.267l.125.01H41.182l.09.005.05.008h.022l.03-.028-.064-.01.035-.03h-.023l-.048-.004-.09-.004-.103-.013h-.246l-.132-.01h-.135zm.778.1l.027.003.004-.03-.03.028z"></path>
        <path fill="#FFF" d="M41.433 16.728H41.362l-.007.105-.016.11-.018.1-.013.037.066.013.01-.04.018-.1.016-.12.017-.105"></path>
        <path fill="#FFF" d="M40.71 16.12v.069l.13.005.114.033.11.05.093.066.075.077.068.095.044.1.023.114h.067l-.023-.127-.043-.12-.078-.106-.09-.088-.102-.078-.123-.05-.126-.032-.14-.017"></path>
        <path fill="#FFF" d="M40.222 16.102l-.178.01-.178.01-.178.018-.174.017-.172.023-.17.02-.16.028-.14.03-.135.025-.122.033-.102.034-.084.037-.066.04.054.032-.067-.01.056.032.056-.03.072-.037.094-.032.12-.033.133-.028.144-.027.157-.03.162-.02.172-.02.174-.02.178-.017.178-.008h.511l.156.006v-.067l-.155-.007-.163-.01"></path>
        <path d="M38.76 15.095l-.024.03-.383 1.324.065.01.387-1.327-.023.03-.023-.068zm-.018.007l-.006.023.023-.03-.018.007z" fill="#FFF"></path>
        <path fill="#FFF" d="M40.656 14.826h-.34l-.16.01-.16.007-.153.012-.15.01-.147.022-.137.023-.14.027-.133.027-.132.04-.124.042-.12.05.02.065.122-.047.126-.044.122-.04.132-.026.138-.03.136-.022.138-.02.15-.012.152-.01.16-.007H40.835l.187.007h.187v-.067l-.186-.01-.186-.007"></path>
        <path fill="#FFF" d="M41.207 14.91l.155.01.157.03.17.036.17.048.172.068.166.077.163.087.15.105.138.12.12.125.11.145.076.16.06.168.04.183v.21l-.03.213.068.013.028-.228v-.21l-.038-.192-.06-.18-.09-.17-.11-.155-.132-.138-.136-.122-.16-.105-.165-.098-.177-.078-.17-.064-.18-.05-.172-.038-.168-.028-.155-.01"></path>
        <path fill="#FFF" d="M42.45 19.6l.066.01.577-2.903-.067-.01"></path>
        <path fill="#FAB12F" d="M40.81 18.065l-.083.007-.086.01-.087.01-.09.013-.082.01-.08.015-.072.013-.07.017-.056.008-.037.006-.046.017-.056.018-.06.023-.074.032-.065.036-.075.038-.074.048-.07.048-.072.06-.06.062-.062.07-.048.078-.04.084-.03.088-.018.092-.006.19.027.146.044.11.068.082.082.055.094.034.092.017.095.005.166-.004.153-.016.144-.03.125-.037.12-.044.104-.05.1-.054.086-.068.08-.06.065-.072.058-.065.053-.072.037-.067.028-.065.022-.066.016-.06.023-.153.03-.16.022-.154.01-.138-.01-.03-.02-.026-.04-.02-.056-.016-.06-.004-.072-.007"></path>
        <path fill="#FFF" d="M53.096 19.346l-.142.046-.132.065-.116.092-.094.116-.077.132-.042.147-.013.128h.16l.012-.1.033-.12.053-.11.07-.093.09-.078.106-.054.12-.038.127-.01.127.01.12.038.106.054.086.078.072.094.055.11.033.12.007.1h.163l-.01-.13-.044-.146-.078-.132-.092-.117-.117-.093-.133-.065-.14-.046-.156-.015"></path>
        <path fill="#FFF" d="M52.975 19.744v.33h.14v-.215h.224l.027.005.03.004.016.01.016.01.012.023.005.028v.04l-.01.026-.013.016-.02.017-.03.012-.032.01-.038.006-.023.007h.233l.01-.013.015-.033.012-.04.005-.05-.005-.037-.012-.038-.02-.035-.028-.032-.038-.023-.045-.017-.06-.01-.068-.004"></path>
        <path fill="#FFF" d="M53.856 20.074l.004.03-.01.133-.034.122-.054.103-.07.093-.09.077-.104.06-.122.04-.125.01-.125-.01-.122-.04-.104-.06-.092-.077-.07-.093-.053-.104-.034-.123-.01-.132v-.03h-.16l-.005.03.017.16.042.148.077.132.096.11.115.093.135.072.14.046.156.014.156-.014.14-.046.132-.072.117-.092.092-.11.078-.133.044-.147.016-.16-.007-.032"></path>
        <path fill="#FFF" d="M53.277 20.074l-.027.006h-.136v-.006h-.14v.335h.14v-.276h.136l.165.275h.11l-.164-.276h.04l.038-.012.032-.01.027-.024.013-.014"></path>
        <path d="M53.25 20.744l.128-.01.12-.04.104-.06.088-.077.07-.094.056-.105.033-.12.012-.13-.013-.133-.034-.122-.055-.11-.07-.095-.088-.076-.105-.054-.12-.04-.127-.01-.126.01-.12.04-.106.054-.088.076-.07.096-.056.11-.033.12-.01.133.01.132.034.118.055.105.07.094.088.078.105.058.12.04.127.01m0-.664l.048-.013.04-.004.033-.01.03-.013.022-.017.01-.017.01-.027v-.04l-.006-.026-.01-.023-.017-.01-.018-.01-.027-.006-.027-.005h-.223v.22h.136m-.136.328h-.14v-.664h.303l.067.004.06.01.045.018.037.023.027.03.023.034.01.037.007.04-.007.05-.01.04-.017.033-.023.027-.027.02-.034.01-.037.014h-.04l.166.274h-.113l-.163-.274h-.136v.274m-.64-.3l.017-.163.043-.146.078-.133.095-.116.115-.093.134-.067.143-.044.153-.015.155.016.142.044.132.067.115.094.094.117.076.132.042.145.017.162-.017.16-.042.146-.077.134-.095.11-.116.09-.133.074-.142.045-.155.017-.153-.017-.143-.044-.134-.072-.115-.092-.094-.11-.077-.133-.042-.147-.015-.16" stroke="#FFF" stroke-width=".5"></path>
        <path fill="#FFF" d="M42.896 20.826h1.55L45 17.698l.022-.122.034-.12.033-.123.043-.12.055-.12.067-.116.07-.11.09-.106.098-.09.11-.09.126-.083.142-.065.16-.054.175-.044.193-.034.214-.012h.139l.247-1.413-.154.01-.15.02-.137.025-.133.04-.12.044-.117.054-.11.06-.103.066-.1.077-.093.08-.088.087-.088.088-.082.094-.084.102-.08.098-.077.11.164-.994H43.92"></path>
        <path stroke="#FFF" stroke-width=".5" d="M42.896 20.826h1.55L45 17.698l.022-.122.034-.12.033-.123.043-.12.055-.12.067-.116.07-.11.09-.106.098-.09.11-.09.126-.083.142-.065.16-.054.175-.044.193-.034.214-.012h.139l.247-1.413-.154.01-.15.02-.137.025-.133.04-.12.044-.117.054-.11.06-.103.066-.1.077-.093.08-.088.087-.088.088-.082.094-.084.102-.08.098-.077.11.164-.994H43.92l-1.026 5.89"></path>
        <path fill="#FFF" d="M28.333 20.826h1.577l.528-3.128.023-.122.03-.115.026-.114.038-.11.044-.11.056-.105.065-.098.077-.094.088-.084.098-.08.122-.066.132-.06.153-.05.17-.045.188-.028.214-.016h.016l.023.005.03.004h.026l.027.005.023.007.015.004h.007l.006-.02.015-.068.023-.1.028-.12.038-.143.04-.155.05-.153.048-.155.044-.102.055-.105.056-.105.054-.094.048-.082.04-.065.027-.04.01-.015h-.005l-.023-.007-.027-.006-.04-.006h-.037l-.044-.004-.038-.007h-.04l-.17.01-.153.02-.144.025-.13.033-.13.044-.114.057-.105.054-.097.065-.095.072-.088.083-.08.082-.085.092-.082.095-.077.104-.082.11-.084.11.2-.994h-1.58"></path>
        <path stroke="#FFF" stroke-width=".5" d="M28.333 20.826h1.577l.528-3.128.023-.122.03-.115.026-.114.038-.11.044-.11.056-.105.065-.098.077-.094.088-.084.098-.08.122-.066.132-.06.153-.05.17-.045.188-.028.214-.016h.016l.023.005.03.004h.026l.027.005.023.007.015.004h.007l.006-.02.015-.068.023-.1.028-.12.038-.143.04-.155.05-.153.048-.155.044-.102.055-.105.056-.105.054-.094.048-.082.04-.065.027-.04.01-.015h-.005l-.023-.007-.027-.006-.04-.006h-.037l-.044-.004-.038-.007h-.04l-.17.01-.153.02-.144.025-.13.033-.13.044-.114.057-.105.054-.097.065-.095.072-.088.083-.08.082-.085.092-.082.095-.077.104-.082.11-.084.11.2-.994h-1.58l-1.027 5.89"></path>
        <path fill="#FAB12F" d="M53.096 26.018l-.142.037-.132.067-.116.088-.094.11-.077.127-.042.143v.023h.16l.032-.116.053-.104.07-.095.09-.077.106-.06.12-.038.127-.01.127.01.12.038.106.06.086.078.072.095.055.104.033.116h.16v-.023l-.044-.143-.078-.128-.092-.11-.117-.088-.133-.067-.14-.037L53.25 26"></path>
        <path fill="#FAB12F" d="M53.277 26.42h-.302v.192h.14v-.11h.224l.027.005.03.006.016.01.016.01.012.024.005.026v.03h.11l-.006-.05-.012-.04-.02-.033-.028-.027-.038-.023-.045-.01-.06-.01M52.493 26.612l-.017.12h.163l.012-.114v-.006"></path>
        <path fill="#FAB12F" d="M53.443 26.612v.01l-.01.027-.013.016-.023.017-.025.012-.034.01-.037.007-.05.008h-.138v-.108h-.136v.12h.522l.023-.02.015-.03.01-.033.007-.038M53.85 26.612v.006l.01.115h.166l-.016-.12"></path>
        <path fill="#FAB12F" d="M53.86 26.732v.017l-.01.13-.034.122-.055.103-.07.092-.086.08-.107.06-.12.038-.127.01-.126-.01-.12-.037-.106-.06-.088-.08-.073-.093-.053-.103-.033-.12-.01-.133v-.018h-.165v.017l.017.158.042.15.077.13.095.116.116.094.135.065.14.044.155.017.155-.017.143-.044.132-.065.115-.094.092-.115.078-.133.044-.15.015-.158v-.018"></path>
        <path fill="#FAB12F" d="M52.975 26.732v.32h.14v-.276h.135l.165.275h.11l-.164-.274h.04l.038-.01.032-.01.027-.024"></path>
        <path d="M27.012 17.196h-2.01l.003-.004L25 17.19l.016-.076.023-.115.03-.112.04-.11.048-.097.05-.094.06-.088.066-.083.074-.076.07-.068.082-.06.082-.05.094-.043.095-.034.093-.02.098-.018.106-.006.1.01.093.017.087.022.088.03.084.045.08.05.074.055.065.067.053.075.055.083.04.095.037.104.02.11.012.12.006.133-.01.136zm1.492-.507l-.046-.328-.077-.293-.108-.253-.14-.22-.162-.188-.182-.154-.197-.132-.215-.1-.218-.082-.226-.055-.226-.04-.226-.02-.214-.007-.446.023-.394.065-.358.1-.318.137-.277.165-.24.187-.216.21-.174.22-.155.23-.125.243-.1.237-.083.234-.06.234-.045.214-.03.203-.024.177-.027.45.018.407.06.37.092.323.132.292.162.252.186.226.214.187.23.16.25.135.258.107.268.082.274.064.277.04.275.027.268.005h.183l.172-.004h.146l.145-.005.124-.01.116-.01.11-.012.1-.017.09-.018.09-.02.09-.03.08-.026.083-.033.088-.033.09-.046.087-.04.22-1.354-.16.094-.152.086-.16.067-.155.06-.148.05-.153.032-.15.028-.15.023-.148.01-.142.006h-.15l-.14-.006-.144-.01-.144-.017-.14-.018-.14-.02-.11-.024-.11-.038-.11-.05-.1-.06-.1-.066-.087-.08-.082-.085-.077-.095-.065-.093-.06-.104-.044-.1-.04-.104-.02-.104-.01-.105.003-.094.012-.07h3.568l.027-.336.084-.463.038-.416-.004-.375z" fill="#FFF"></path>
    </g>
</svg>
