<svg xmlns="http://www.w3.org/2000/svg" width="30" height="28" viewBox="0 0 54 18" aria-hidden="true" focusable="false">
    <g fill="none" fill-rule="evenodd">
        <path fill="#0767B0" d="M21.954.497L19.23 17.243h4.36L26.315.497"></path>
        <path d="M15.564.496l-4.157 11.52-.49-2.48-1.468-7.53S9.27.496 7.38.496H.51L.43.78s2.102.437 4.562 1.917L8.78 17.243h4.54L20.256.496h-4.692z" fill="#0767B0"></path>
        <path d="M45.058 11.32l2.29-6.268 1.29 6.267h-3.58zm4.797 5.922h4.003L50.368.496h-3.503c-1.62 0-2.014 1.25-2.014 1.25l-6.5 15.496h4.544l.91-2.487h5.542l.51 2.487z" fill="#0767B0"></path>
        <path d="M38.688 4.524L39.31.927S37.39.2 35.39.2c-2.164-.002-7.302.943-7.302 5.542 0 4.326 6.03 4.38 6.03 6.65 0 2.273-5.408 1.866-7.194.434l-.647 3.758s1.945.947 4.92.947c2.974 0 7.464-1.54 7.464-5.732 0-4.354-6.084-4.76-6.084-6.652 0-1.894 4.245-1.65 6.11-.622" fill="#0767B0"></path>
        <path d="M10.916 9.536L9.45 2.006S9.27.496 7.38.496H.51L.43.782s3.304.684 6.47 3.247c3.03 2.45 4.016 5.506 4.016 5.506" fill="#F9A533"></path>
    </g>
</svg>
